# xmcd
#
# Track frame offsets: 
#        150
#        14450
#        33085
#        54965
#        72177
#        86930
#        98937
#        112957
#        131645
#        145235
#        164297
#        184090
#        208990
#        221412
#        249660
#        264517
#        285920
#        304707
#
# Disc length: 4561 seconds
#
# Revision: 0
# Processed by: cddbd v1.4PL0 Copyright (c) Steve Scherf et al.
# Submitted via: ExactAudioCopy v0.90b3
#
DISCID=0211cf12
DTITLE=Steve Earle - The Devil's Right Hand
DYEAR=1900
DGENRE=Country
TTITLE0=My Old Friend The Blues
TTITLE1=Fearless Heart
TTITLE2=Little Rock N' Roller
TTITLE3=Someday
TTITLE4=Little Sister
TTITLE5=Sweet Little '66
TTITLE6=San Antonio Girl
TTITLE7=The Rain Came Down
TTITLE8=The Devil's Right Hand
TTITLE9=When I'm Blue
TTITLE10=You Belong To Me
TTITLE11=The Other Kind
TTITLE12=Hopeless Romantics
TTITLE13=Billy Austin
TTITLE14=Regular Guy
TTITLE15=Close Your Eyes
TTITLE16=She's About A Mover (Live)
TTITLE17=Dead Flowers (Live)
EXTD=
EXTT0=
EXTT1=
EXTT2=
EXTT3=
EXTT4=
EXTT5=
EXTT6=
EXTT7=
EXTT8=
EXTT9=
EXTT10=
EXTT11=
EXTT12=
EXTT13=
EXTT14=
EXTT15=
EXTT16=
EXTT17=
PLAYORDER=
